PathFileType	4	(X/Y/Z)	s02c0303.trc
DataRate	CameraRate	NumFrames	NumMarkers	Units	OrigDataRate	OrigDataStartFrame	OrigNumFrames
200	200	5	50	mm	200	500	2000
Frame#	Time	racr			lacr			c7			jug			rlel			rdr			llel			ldr			s2			lic			ric			lasi			rasi			rpsi			lpsi			rgt			lgt			rth1			rth2			rth3			rth4			rlfc			rmfc			rsh1			rsh2			rsh3			rsh4			rlmal			rmmal			rtoe			rmt5			rmt1			lth1			lth2			lth4			lth3			llfc			lmfc			lsh1			lsh2			lsh3			lsh4			llmal			lmmal			lcal			ltoe			lmt5			SBIKE			LBIKE			RBIKE			
		X1	Y1	Z1	X2	Y2	Z2	X3	Y3	Z3	X4	Y4	Z4	X5	Y5	Z5	X6	Y6	Z6	X7	Y7	Z7	X8	Y8	Z8	X9	Y9	Z9	X10	Y10	Z10	X11	Y11	Z11	X12	Y12	Z12	X13	Y13	Z13	X14	Y14	Z14	X15	Y15	Z15	X16	Y16	Z16	X17	Y17	Z17	X18	Y18	Z18	X19	Y19	Z19	X20	Y20	Z20	X21	Y21	Z21	X22	Y22	Z22	X23	Y23	Z23	X24	Y24	Z24	X25	Y25	Z25	X26	Y26	Z26	X27	Y27	Z27	X28	Y28	Z28	X29	Y29	Z29	X30	Y30	Z30	X31	Y31	Z31	X32	Y32	Z32	X33	Y33	Z33	X34	Y34	Z34	X35	Y35	Z35	X36	Y36	Z36	X37	Y37	Z37	X38	Y38	Z38	X39	Y39	Z39	X40	Y40	Z40	X41	Y41	Z41	X42	Y42	Z42	X43	Y43	Z43	X44	Y44	Z44	X45	Y45	Z45	X46	Y46	Z46	X47	Y47	Z47	X48	Y48	Z48	X49	Y49	Z49	X50	Y50	Z50	
500	2.5000	647.238926	1278.438408	-94.378224	735.352081	1245.430429	-428.053905	694.522225	1295.196317	-267.817898	611.977539	1179.552418	-264.349471	565.563235	1009.933491	-75.275948	722.607804	865.846200	-123.384965	617.111702	1027.515050	-584.818676	719.384569	842.394056	-516.114509	162.990647	1214.644703	-388.740716	313.523466	1148.396237	-498.480301	252.065288	1211.793032	-219.563490	341.205236	1110.135556	-456.358948	305.489811	1181.491876	-240.718954	176.012554	1249.053531	-354.456737	204.598519	1234.040711	-432.788507	218.256193	1140.370154	-173.011920	243.854011	1063.304121	-522.179498	299.983184	1094.984108	-161.856915	379.372241	1056.377731	-158.577731	429.525113	993.422607	-128.689689	399.876780	1074.812547	-185.028196	517.327522	868.544902	-151.174213	512.587192	848.490736	-262.606146	483.142350	759.063558	-134.688385	452.919951	676.097783	-155.282123	392.606633	616.325108	-149.997329	465.298065	672.853527	-192.414151	317.970368	521.633943	-155.623880	325.840081	539.751339	-236.660217	525.256775	462.267514	-191.103121	416.501261	448.640904	-130.721991	442.836077	463.017664	-240.066227	315.030943	946.781021	-525.371245	362.120567	873.493458	-518.037941	392.088230	884.794422	-499.193939	364.380376	784.762009	-512.644658	386.582275	688.256790	-488.088294	377.244698	661.947162	-385.991423	337.952758	595.450289	-511.183497	310.611079	515.322130	-495.848490	244.824647	453.238244	-502.550295	324.191981	508.872248	-457.221854	172.483086	365.878746	-491.069273	187.208738	352.311036	-413.100568	97.304258	372.221355	-448.735633	271.340274	142.941597	-439.224047	187.781800	206.371195	-504.470638	-128.311932	869.910579	-312.418824	32.646218	83.071658	-515.041200	32.474288	82.729016	-115.530362	
501	2.5050	646.818904	1276.383996	-92.934135	736.491778	1245.026670	-426.682527	695.241212	1293.751692	-266.113041	611.835653	1178.702555	-263.705591	564.731428	1008.509715	-75.097066	722.314500	865.752382	-123.805882	618.003661	1027.988973	-584.722985	718.761610	842.325125	-515.374588	164.316027	1214.771869	-389.164685	314.706890	1148.874965	-499.324334	253.586015	1210.431505	-219.812976	342.155446	1110.274439	-457.338163	303.613603	1179.344678	-246.507794	177.673504	1249.050169	-354.599881	205.770809	1234.751668	-432.891141	219.327693	1138.808497	-173.913510	245.453020	1063.477025	-523.553313	300.722058	1092.643149	-162.383970	379.660927	1053.355227	-159.108127	429.174257	989.775040	-129.280274	400.635891	1071.866386	-185.087448	516.542569	864.744367	-151.984185	512.093236	844.988428	-263.609971	483.273562	755.026837	-135.278277	454.259132	671.648341	-155.519537	394.643852	611.039178	-150.294982	466.726751	668.329450	-192.627672	320.722227	515.639595	-155.506840	328.930943	533.322570	-236.997500	528.972638	457.738712	-190.862273	420.223031	442.355311	-131.514609	446.623538	457.820599	-239.981550	318.154605	947.270997	-524.945313	366.241168	874.769009	-517.448081	396.093558	886.531328	-498.807824	369.561425	786.128283	-511.399181	392.133052	689.720176	-487.052319	381.823708	663.840483	-384.474905	341.970452	597.255873	-510.000600	312.637449	517.751792	-494.613936	245.601342	457.166980	-501.512088	325.968569	511.150808	-455.992174	171.005430	371.336505	-490.409748	185.254408	357.497634	-412.288734	96.116711	378.735682	-448.943929	266.723543	146.897853	-439.191726	184.114017	211.538739	-504.218943	-128.218950	869.966101	-312.256164	32.651826	83.176712	-515.009571	32.461350	82.741018	-115.492704	
502	2.5100	646.404339	1274.358796	-91.440426	737.700707	1244.673662	-425.194840	696.016742	1292.491666	-264.359732	611.770860	1178.037993	-263.136827	563.557063	1007.037803	-75.305563	721.976974	865.764296	-124.021854	619.039591	1028.575134	-584.575549	718.413541	842.275803	-514.872681	165.664290	1214.656993	-389.600655	315.884431	1149.243366	-500.075399	255.699533	1208.656330	-219.276358	343.131548	1110.381632	-458.386543	305.212603	1177.875918	-246.929170	179.831418	1247.234313	-355.432407	207.341926	1235.122803	-433.441121	220.624002	1136.897063	-174.820695	246.973921	1063.635421	-524.909884	301.635855	1089.903458	-162.827295	380.097869	1049.882635	-159.550409	428.930912	985.812407	-129.743776	401.444040	1068.596403	-185.022964	515.709616	860.620495	-152.828295	510.750302	840.387078	-264.243986	483.386947	750.684493	-135.825632	455.491269	666.837063	-155.826942	396.559475	605.501940	-150.625826	466.919060	663.015626	-193.075513	324.000900	509.039682	-156.061715	331.657352	526.878964	-237.170359	532.482462	452.962591	-190.475709	423.842071	436.766434	-131.463204	450.177171	452.491288	-239.770993	321.379348	947.790287	-524.937494	370.275378	875.936096	-516.738750	400.017839	888.130233	-498.399405	374.543889	787.438481	-510.001783	397.457163	691.166634	-485.936270	386.251333	665.602630	-383.394520	345.818784	598.867883	-508.956666	314.769354	520.173635	-493.537602	246.429064	461.007224	-500.678868	327.901410	513.429201	-454.948001	169.784261	376.817013	-489.733501	183.646574	362.551275	-411.562240	94.835721	384.761041	-448.426401	262.283530	150.758035	-439.139498	180.723210	216.672406	-503.947106	-128.133086	870.015595	-312.099403	32.645679	83.309382	-514.943696	32.478413	82.751450	-115.493301	
503	2.5150	646.043471	1272.452820	-89.996469	738.964197	1244.445550	-423.809987	696.818268	1291.263791	-262.600587	611.711431	1177.440631	-262.515508	562.235183	1005.516215	-75.708431	721.717360	865.706162	-124.152962	620.065384	1029.148663	-584.435305	718.383405	842.245771	-514.647996	167.052904	1214.320244	-389.865464	317.058031	1149.633899	-500.806924	257.409310	1206.934150	-219.307760	344.164581	1110.383461	-459.391944	306.870278	1176.219879	-247.323276	180.492827	1247.304578	-355.423211	208.852247	1235.294792	-433.907260	222.027299	1134.651611	-175.807053	248.520486	1063.653078	-526.265481	302.674555	1087.131275	-163.183253	380.666134	1046.285885	-159.964118	428.803937	981.639184	-130.232018	402.377211	1065.141841	-184.944496	514.873116	856.145510	-153.677009	510.545895	836.088584	-264.600456	483.347316	745.924620	-136.386426	455.401697	661.256837	-156.257691	398.426590	599.683400	-150.925588	468.108545	657.742994	-193.681596	326.714758	502.678934	-156.151693	334.372829	520.320128	-237.312608	535.810554	447.972695	-190.239063	427.392604	431.940950	-130.414745	453.662041	447.140791	-239.793867	324.546843	948.280929	-524.999976	374.105706	876.933441	-515.767264	403.761946	889.634141	-497.986509	379.352858	788.660276	-508.809846	402.501753	692.395735	-485.136627	390.442312	667.075898	-382.674235	349.544972	600.519360	-508.005432	316.759266	522.436913	-492.580743	247.321931	464.609546	-499.846620	329.702126	515.447740	-453.899756	168.795506	382.220614	-489.192680	182.490332	367.535001	-411.079359	93.817934	391.218699	-448.086780	258.040242	154.835128	-439.105036	177.474939	221.950461	-503.696441	-128.060410	870.063364	-311.989510	32.685003	83.294218	-514.856031	32.627147	82.716748	-115.028685	
504	2.5200	645.669065	1270.428569	-88.746114	740.195266	1244.400882	-422.488564	697.638841	1290.099357	-260.935934	611.544522	1177.024115	-262.171931	560.976711	1004.136474	-75.931098	721.470119	865.638052	-124.272282	621.152893	1029.761260	-584.294350	718.910289	842.470180	-515.295228	168.441769	1213.817731	-390.084307	318.128707	1150.244999	-501.494998	258.916758	1204.951582	-219.535790	345.012397	1110.080769	-460.121932	308.561247	1174.483658	-247.730261	181.787780	1248.004936	-354.878108	210.348519	1235.375428	-434.228811	223.654057	1132.302608	-176.617727	250.080400	1063.549126	-527.549463	303.888621	1084.013302	-163.639857	381.515516	1042.557150	-160.216183	428.888690	977.176841	-130.907350	403.452399	1061.394736	-185.023787	514.031149	851.430265	-154.379055	510.226036	831.590946	-264.385218	483.368076	741.074780	-136.842358	456.311370	656.001785	-156.556098	400.109967	593.715817	-151.209674	469.740776	653.373178	-194.214749	329.328983	496.132549	-156.252811	336.950510	513.787536	-237.462584	539.016573	442.730763	-190.230069	430.632077	426.084487	-130.214416	456.820204	441.492245	-239.589620	327.661772	948.703745	-525.124301	377.831169	877.907157	-515.126938	407.316053	890.986550	-497.477424	384.027047	789.763416	-507.820818	407.439678	693.348565	-484.527756	394.423044	668.407524	-381.943815	353.100624	602.035526	-507.151262	318.912544	524.676944	-491.825657	248.315026	468.145988	-499.159835	331.259197	517.213462	-452.980074	167.949981	387.554394	-488.808910	181.242969	372.599157	-410.665803	92.975929	397.513746	-447.846371	253.978351	158.932363	-439.023608	174.479331	227.225178	-503.475501	-128.035561	870.075525	-311.897602	32.717098	83.316249	-514.861139	32.643140	82.731846	-114.968675	
